<svg xmlns="http://www.w3.org/2000/svg" viewBox="0 0 1024 1024">
  <defs>
    <linearGradient id="l1" x1="0" y1="0" x2="1" y2="1">
      <stop offset="0%" stop-color="#4488ff"/><stop offset="100%" stop-color="#2266dd"/>
    </linearGradient>
    <linearGradient id="l2" x1="1" y1="0" x2="0" y2="1">
      <stop offset="0%" stop-color="#4488ff"/><stop offset="100%" stop-color="#2266dd"/>
    </linearGradient>
  </defs>
  <circle cx="512" cy="512" r="480" fill="#1a1a2e"/>
  <path d="M280 520 Q200 480 200 380 Q200 280 280 240 Q320 220 370 240 Q480 280 480 420 Q480 520 420 560 Q370 580 340 560 Z" fill="url(#l1)" opacity=".85"/>
  <path d="M680 560 Q760 520 760 620 Q760 720 680 760 Q640 780 590 760 Q480 720 480 580 Q480 480 540 440 Q590 420 620 440 Z" fill="url(#l2)" opacity=".85"/>
  <ellipse cx="340" cy="350" rx="80" ry="75" fill="#909090"/>
  <ellipse cx="620" cy="650" rx="80" ry="75" fill="#909090"/>
</svg>
